# xmcd
#
# Track frame offsets:
#	150
#	14179
#	27767
#	37838
#	56993
#	68055
#	84263
#	99047
#	117292
#	129215
#	142026
#	158139
#	172316
#	187440
#	199295
#	215895
#	228792
#
# Disc length: 3209 seconds
#
# Revision: 1
# Processed by: cddbd v1.5.2PL0 Copyright (c) Steve Scherf et al.
# Submitted via: audiograbber 1.83.01
#
DISCID=f50c8711
DTITLE=Brett Ratliff - Cold Icy Mountain
DYEAR=2007
DGENRE=Country
TTITLE0=Darling Don't You Know That's Wrong
TTITLE1=Ain't Gonna Work Tomorrow
TTITLE2=TLast Play At Coal Creek
TTITLE3=Nine Miles Out Of Louisville
TTITLE4=Trouble On My Mind
TTITLE5=Getting Wild Again
TTITLE6=High On Mountaintop
TTITLE7=Bluegoose
TTITLE8=Forked Deer
TTITLE9=Bumble Bee In A Jug
TTITLE10=The War Is A- Racing For Johnny
TTITLE11=Young People Who Delight In Sin
TTITLE12=Born In East Kentucky
TTITLE13=Cold Icy Mountain
TTITLE14=Feed My Horse On Corn And Hay
TTITLE15=The Blind Man
TTITLE16=The Wagon Yard
EXTD=
EXTT0=
EXTT1=
EXTT2=
EXTT3=
EXTT4=
EXTT5=
EXTT6=
EXTT7=
EXTT8=
EXTT9=
EXTT10=
EXTT11=
EXTT12=
EXTT13=
EXTT14=
EXTT15=
EXTT16=
PLAYORDER=
